<svg width="17" height="15" viewBox="0 0 17 15" fill="none" xmlns="http://www.w3.org/2000/svg">
<path d="M11.244 7.504C11.244 9.02938 10.0176 10.262 8.49997 10.262C6.98234 10.262 5.75597 9.02938 5.75597 7.504C5.75597 5.97862 6.98234 4.746 8.49997 4.746C10.0176 4.746 11.244 5.97862 11.244 7.504Z" stroke="#E74822" stroke-width="1.2" stroke-linecap="round" stroke-linejoin="round"/>
<path d="M8.5 13.875C11.2057 13.875 13.7274 12.2726 15.4826 9.49917C16.1725 8.41292 16.1725 6.58708 15.4826 5.50083C13.7274 2.72742 11.2057 1.125 8.5 1.125C5.79433 1.125 3.27261 2.72742 1.51737 5.50083C0.827542 6.58708 0.827542 8.41292 1.51737 9.49917C3.27261 12.2726 5.79433 13.875 8.5 13.875Z" stroke="#E74822" stroke-width="1.2" stroke-linecap="round" stroke-linejoin="round"/>
</svg>
